<?xml version="1.0" encoding="utf-8"?>
<!-- Generator: Adobe Illustrator 16.0.0, SVG Export Plug-In . SVG Version: 6.00 Build 0)  -->
<!DOCTYPE svg PUBLIC "-//W3C//DTD SVG 1.1//EN" "http://www.w3.org/Graphics/SVG/1.1/DTD/svg11.dtd">
<svg version="1.1" id="Capa_1" xmlns="http://www.w3.org/2000/svg" xmlns:xlink="http://www.w3.org/1999/xlink" x="0px" y="0px"
	 width="28.625px" height="28.458px" viewBox="-5.563 -5.515 28.625 28.458" enable-background="new -5.563 -5.515 28.625 28.458"
	 xml:space="preserve">
<path fill="#FF9900" stroke="#000000" stroke-width="0.5" stroke-miterlimit="10" d="M8.719,0.625c-4.47,0-8.094,3.624-8.094,8.094
	c0,4.471,3.624,8.094,8.094,8.094s8.093-3.623,8.093-8.094C16.813,4.249,13.189,0.625,8.719,0.625z M8.688,14.257
	c-3.059,0-5.539-2.479-5.539-5.539c0-3.059,2.48-5.539,5.539-5.539s5.539,2.479,5.539,5.539
	C14.227,11.777,11.747,14.257,8.688,14.257z"/>
<title>Group Copy 3</title>
<desc>Created with Sketch.</desc>
<path fill="#FF9900" stroke="#000000" stroke-width="0.5" stroke-miterlimit="10" d="M8.72-5.042c-7.6,0-13.761,6.161-13.761,13.76
	c0,7.601,6.161,13.76,13.761,13.76c7.6,0,13.759-6.159,13.759-13.76C22.479,1.12,16.319-5.042,8.72-5.042z M8.667,19.927
	c-6.19,0-11.209-5.019-11.209-11.209c0-6.19,5.019-11.208,11.209-11.208c6.19,0,11.208,5.018,11.208,11.208
	C19.875,14.908,14.856,19.927,8.667,19.927z"/>
</svg>
